<svg width="16" height="22" viewBox="0 0 16 22" fill="none" xmlns="http://www.w3.org/2000/svg">
<path d="M7.55456 10.2624C6.84343 10.2624 6.16143 9.97967 5.65858 9.47644C5.15574 8.9732 4.87324 8.29066 4.87324 7.57898C4.87324 6.86729 5.15574 6.18476 5.65858 5.68152C6.16143 5.17828 6.84343 4.89557 7.55456 4.89557C8.26569 4.89557 8.94769 5.17828 9.45053 5.68152C9.95338 6.18476 10.2359 6.86729 10.2359 7.57898C10.2359 7.93137 10.1665 8.28031 10.0318 8.60588C9.89702 8.93144 9.69952 9.22726 9.45053 9.47644C9.20155 9.72562 8.90597 9.92327 8.58065 10.0581C8.25534 10.193 7.90667 10.2624 7.55456 10.2624ZM7.55456 0.0654297C5.5634 0.0654297 3.65379 0.857033 2.24582 2.2661C0.837861 3.67516 0.046875 5.58626 0.046875 7.57898C0.046875 13.2141 7.55456 21.5327 7.55456 21.5327C7.55456 21.5327 15.0622 13.2141 15.0622 7.57898C15.0622 5.58626 14.2713 3.67516 12.8633 2.2661C11.4553 0.857033 9.54572 0.0654297 7.55456 0.0654297Z" fill="white"/>
</svg>
