<svg width="162" height="126" viewBox="0 0 162 126" fill="none" xmlns="http://www.w3.org/2000/svg">
<path d="M17.0075 85.3113C19.3949 85.3113 21.6511 85.7179 23.7761 86.5312C25.9011 87.3445 27.7113 88.4463 29.2067 89.8368L27.2391 92.1979C25.7437 90.8075 24.1696 89.8106 22.5168 89.2072C20.8903 88.5775 19.185 88.2627 17.401 88.2627C16.063 88.2627 14.83 88.4988 13.7019 88.971C12.5738 89.417 11.59 90.1123 10.7504 91.0567C9.93716 92.0012 9.29441 93.208 8.82218 94.6771C8.37618 96.1201 8.15319 97.8516 8.15319 99.8717C8.15319 101.944 8.3893 103.728 8.86153 105.224C9.33376 106.693 9.98963 107.913 10.8292 108.883C11.6687 109.828 12.6787 110.536 13.8593 111.008C15.0661 111.454 16.3778 111.677 17.7945 111.677C18.9751 111.677 19.9852 111.572 20.8247 111.363C21.6904 111.153 22.4119 110.903 22.9891 110.615C23.6712 110.3 24.2352 109.933 24.6812 109.513V102.036H19.5654V99.4781H30.3873V110.3C29.4166 111.087 28.2885 111.782 27.003 112.386C25.9011 112.91 24.5369 113.383 22.9104 113.802C21.31 114.222 19.4736 114.432 17.401 114.432C15.0399 114.432 12.9148 114.117 11.0259 113.488C9.137 112.858 7.52355 111.927 6.18557 110.694C4.84758 109.461 3.82442 107.939 3.11608 106.129C2.40773 104.318 2.05356 102.233 2.05356 99.8717C2.05356 97.5105 2.40773 95.4248 3.11608 93.6146C3.82442 91.8044 4.82135 90.2828 6.10686 89.0497C7.41861 87.8167 8.99271 86.8854 10.8292 86.2557C12.6918 85.6261 14.7513 85.3113 17.0075 85.3113ZM42.4021 104.004H54.6014L48.6985 89.4433H48.305L42.4021 104.004ZM53.0273 86.0983L64.2427 113.645H58.576L55.9787 106.955H41.0248L38.4275 113.645H32.7608L43.9762 86.0983H53.0273ZM85.1118 99.6749L95.5402 113.645H89.047L79.996 101.446H73.1093V113.645H67.4032V86.0983H73.1093V98.4943H79.6025L88.6535 86.0983H94.9499L85.1118 99.6749ZM116.394 99.6749L126.822 113.645H120.329L111.278 101.446H104.391V113.645H98.6853V86.0983H104.391V98.4943H110.885L119.936 86.0983H126.232L116.394 99.6749ZM144.134 111.677C145.42 111.677 146.574 111.507 147.597 111.166C148.647 110.799 149.539 110.248 150.273 109.513C151.008 108.752 151.572 107.795 151.965 106.64C152.385 105.46 152.595 104.056 152.595 102.43V86.0983H158.301V102.43C158.301 106.47 157.068 109.487 154.602 111.481C152.136 113.448 148.647 114.432 144.134 114.432C139.596 114.432 136.093 113.448 133.627 111.481C131.187 109.487 129.967 106.47 129.967 102.43V86.0983H135.674V102.43C135.674 104.056 135.87 105.46 136.264 106.64C136.684 107.795 137.261 108.752 137.995 109.513C138.73 110.248 139.609 110.799 140.632 111.166C141.681 111.507 142.849 111.677 144.134 111.677Z" fill="white"/>
<path d="M89.8571 120.815H88.8789V122.975H88.3922V120.815H87.4139L85.973 122.975H85.3947L87.0043 120.55L85.52 118.265H86.0549L87.4042 120.377H88.3922V118.265H88.8789V120.377H89.8571L91.2113 118.265H91.7511L90.2571 120.55L91.8715 122.975H91.2932L89.8571 120.815Z" fill="white"/>
<path d="M93.004 118.265H93.4956V122.17L96.5075 118.265H96.9557V122.975H96.4689V119.08L93.4522 122.975H93.004V118.265Z" fill="white"/>
<path d="M102.498 118.265V122.975H102.006V118.694H99.7363L99.6833 120.271C99.6591 120.921 99.611 121.442 99.5242 121.842C99.4423 122.242 99.3122 122.537 99.1435 122.729C98.9748 122.927 98.7435 123.023 98.464 123.023C98.3435 123.023 98.2182 123.009 98.0881 122.975L98.1315 122.532C98.2086 122.551 98.2809 122.561 98.3532 122.561C98.5508 122.561 98.7098 122.483 98.8351 122.329C98.9604 122.175 99.0519 121.929 99.1146 121.601C99.1772 121.273 99.2206 120.835 99.2447 120.29L99.3122 118.27H102.507L102.498 118.265Z" fill="white"/>
<path d="M105.22 122.7C104.84 122.488 104.546 122.204 104.334 121.842C104.117 121.481 104.011 121.071 104.011 120.618C104.011 120.165 104.117 119.755 104.334 119.393C104.55 119.032 104.844 118.742 105.22 118.535C105.601 118.328 106.02 118.222 106.488 118.222C106.955 118.222 107.37 118.328 107.746 118.535C108.121 118.742 108.415 119.027 108.627 119.393C108.844 119.76 108.95 120.169 108.95 120.623C108.95 121.076 108.839 121.486 108.627 121.852C108.411 122.218 108.117 122.503 107.746 122.71C107.37 122.917 106.95 123.023 106.488 123.023C106.025 123.023 105.601 122.917 105.22 122.71M107.495 122.324C107.799 122.156 108.03 121.919 108.199 121.625C108.367 121.326 108.454 120.994 108.454 120.627C108.454 120.261 108.367 119.928 108.199 119.629C108.03 119.331 107.789 119.099 107.495 118.93C107.191 118.762 106.859 118.68 106.488 118.68C106.117 118.68 105.779 118.762 105.476 118.93C105.172 119.099 104.936 119.335 104.763 119.629C104.589 119.928 104.507 120.261 104.507 120.627C104.507 120.994 104.594 121.326 104.763 121.625C104.936 121.924 105.177 122.156 105.476 122.324C105.779 122.493 106.117 122.575 106.488 122.575C106.859 122.575 107.196 122.493 107.495 122.324Z" fill="white"/>
<path d="M110.483 118.265H110.974V122.17L113.986 118.265H114.434V122.975H113.943V119.08L110.931 122.975H110.483V118.265ZM111.649 117.691C111.451 117.542 111.355 117.325 111.35 117.055H111.721C111.721 117.233 111.794 117.378 111.924 117.479C112.054 117.585 112.232 117.634 112.444 117.634C112.656 117.634 112.834 117.585 112.965 117.479C113.1 117.378 113.167 117.238 113.172 117.055H113.543C113.543 117.33 113.437 117.542 113.239 117.691C113.042 117.841 112.777 117.923 112.449 117.923C112.121 117.923 111.847 117.846 111.654 117.691" fill="white"/>
<path d="M120.025 120.815H118.945V122.975H118.458V118.265H118.945V120.377H120.025L121.615 118.265H122.155L120.4 120.555L122.251 122.975H121.682L120.025 120.815Z" fill="white"/>
<path d="M124.15 122.7C123.769 122.488 123.475 122.204 123.263 121.842C123.046 121.481 122.94 121.071 122.94 120.618C122.94 120.165 123.046 119.755 123.263 119.393C123.48 119.032 123.774 118.742 124.15 118.535C124.53 118.328 124.95 118.222 125.417 118.222C125.885 118.222 126.299 118.328 126.675 118.535C127.051 118.742 127.345 119.027 127.557 119.393C127.774 119.76 127.88 120.169 127.88 120.623C127.88 121.076 127.769 121.486 127.557 121.852C127.34 122.218 127.046 122.503 126.675 122.71C126.299 122.917 125.88 123.023 125.417 123.023C124.954 123.023 124.53 122.917 124.15 122.71M126.424 122.324C126.728 122.156 126.959 121.919 127.128 121.625C127.297 121.326 127.383 120.994 127.383 120.627C127.383 120.261 127.297 119.928 127.128 119.629C126.959 119.331 126.718 119.099 126.424 118.93C126.121 118.762 125.788 118.68 125.417 118.68C125.046 118.68 124.709 118.762 124.405 118.93C124.101 119.099 123.865 119.335 123.692 119.629C123.518 119.928 123.436 120.261 123.436 120.627C123.436 120.994 123.523 121.326 123.692 121.625C123.865 121.924 124.106 122.156 124.405 122.324C124.709 122.493 125.046 122.575 125.417 122.575C125.788 122.575 126.125 122.493 126.424 122.324Z" fill="white"/>
<path d="M134.299 118.265V122.975H133.822V119.21L131.971 122.377H131.735L129.889 119.229V122.975H129.407V118.265H129.822L131.865 121.76L133.889 118.265H134.299Z" fill="white"/>
<path d="M140.188 118.265V122.975H139.696V118.699H136.713V122.975H136.226V118.265H140.188Z" fill="white"/>
<path d="M145.725 118.265V122.975H145.233V118.694H142.963L142.91 120.271C142.886 120.921 142.838 121.442 142.751 121.842C142.669 122.242 142.539 122.537 142.371 122.729C142.202 122.927 141.971 123.023 141.691 123.023C141.571 123.023 141.445 123.009 141.315 122.975L141.359 122.532C141.436 122.551 141.508 122.561 141.58 122.561C141.778 122.561 141.937 122.483 142.062 122.329C142.187 122.175 142.279 121.929 142.342 121.601C142.404 121.273 142.448 120.835 142.472 120.29L142.539 118.27H145.734L145.725 118.265Z" fill="white"/>
<path d="M150.982 122.546V122.975H147.647V118.265H150.881V118.699H148.149V120.377H150.587V120.796H148.149V122.546H150.982Z" fill="white"/>
<path d="M153.98 120.815H152.905V122.975H152.418V118.265H152.905V120.377H153.98L155.575 118.265H156.11L154.365 120.555L156.216 122.975H155.642L153.98 120.815Z" fill="white"/>
<path d="M158.11 122.705C157.734 122.498 157.44 122.213 157.228 121.847C157.011 121.481 156.905 121.071 156.905 120.618C156.905 120.165 157.011 119.755 157.228 119.388C157.44 119.022 157.739 118.738 158.11 118.53C158.486 118.323 158.905 118.217 159.372 118.217C159.719 118.217 160.047 118.275 160.341 118.391C160.64 118.506 160.885 118.68 161.093 118.902L160.775 119.22C160.408 118.848 159.941 118.66 159.382 118.66C159.011 118.66 158.673 118.747 158.365 118.916C158.057 119.085 157.82 119.321 157.652 119.615C157.478 119.914 157.392 120.242 157.392 120.608C157.392 120.975 157.478 121.307 157.652 121.601C157.825 121.9 158.066 122.127 158.365 122.3C158.673 122.469 159.006 122.556 159.382 122.556C159.946 122.556 160.413 122.368 160.775 121.992L161.093 122.31C160.885 122.537 160.635 122.705 160.336 122.821C160.037 122.941 159.714 122.999 159.363 122.999C158.895 122.999 158.476 122.898 158.105 122.686L158.11 122.705Z" fill="white"/>
<path d="M82.7394 117.981H82.296V124.277H82.7394V117.981Z" fill="white"/>
<path d="M7.03663 118.694H5.38368V122.97H4.88732V118.694H3.23438V118.26H7.03663V118.694Z" fill="white"/>
<path d="M9.79795 121.341V122.966H9.30641V121.341L7.42215 118.26H7.95225L9.56664 120.902L11.181 118.26H11.6822L9.79795 121.341ZM8.02935 121.119H11.0509V121.495H8.02935V121.119Z" fill="white"/>
<path d="M15.8989 118.694C16.2362 118.983 16.4097 119.379 16.4097 119.875C16.4097 120.372 16.2411 120.772 15.8989 121.056C15.5616 121.341 15.0893 121.481 14.4869 121.481H13.2243V122.966H12.7231V118.256H14.4869C15.0893 118.256 15.5567 118.395 15.8989 118.685M15.5423 120.733C15.7881 120.531 15.9133 120.242 15.9133 119.866C15.9133 119.49 15.7881 119.191 15.5423 118.983C15.2965 118.781 14.9399 118.675 14.4724 118.675H13.2195V121.032H14.4724C14.9399 121.032 15.2965 120.931 15.5423 120.724" fill="white"/>
<path d="M18.4771 118.694V120.594H20.5107V120.975H18.4867V122.97H17.9952V120.975H17.2723V120.594H17.9952V118.26H20.9878V118.694H18.4771Z" fill="white"/>
<path d="M25.5033 120.319C25.7973 120.57 25.9418 120.936 25.9418 121.423C25.9418 121.91 25.7876 122.315 25.4744 122.58C25.1611 122.84 24.713 122.975 24.125 122.975H22.2553V118.265H22.7468V119.948H24.2262C24.7804 119.948 25.2045 120.078 25.4985 120.324M25.0985 122.291C25.325 122.098 25.4358 121.813 25.4358 121.437C25.4358 120.714 24.9925 120.357 24.101 120.357H22.7372V122.585H24.101C24.5347 122.585 24.8672 122.488 25.0937 122.295M26.7466 118.27H27.2382V122.98H26.7466V118.27Z" fill="white"/>
<path d="M33.1078 118.26V122.97H32.6162V120.801H29.6718V122.97H29.1754V118.26H29.6718V120.362H32.6162V118.26H33.1078Z" fill="white"/>
<path d="M38.7702 121.341V122.97H38.2787V121.341L36.3992 118.26H36.9293L38.5389 120.907L40.1581 118.26H40.6544L38.7702 121.341Z" fill="white"/>
<path d="M41.7532 118.26H42.2447V122.165L45.2567 118.26H45.7048V122.97H45.2133V119.075L42.2014 122.97H41.7532V118.26ZM42.9194 117.687C42.7218 117.537 42.6254 117.32 42.6206 117.05H42.9917C42.9917 117.229 43.064 117.373 43.1941 117.475C43.3242 117.581 43.4977 117.629 43.7146 117.629C43.9314 117.629 44.1049 117.581 44.235 117.475C44.37 117.373 44.4374 117.233 44.4422 117.05H44.8133C44.8133 117.325 44.7073 117.537 44.5097 117.687C44.3121 117.836 44.0471 117.918 43.7194 117.918C43.3917 117.918 43.117 117.841 42.9242 117.687" fill="white"/>
<path d="M51.2901 120.811H50.2107V122.97H49.7287V118.26H50.2107V120.377H51.2901L52.8853 118.26H53.4202L51.6708 120.55L53.5214 122.97H52.9479L51.2901 120.811Z" fill="white"/>
<path d="M57.9549 122.541V122.97H54.6249V118.26H57.8537V118.694H55.1165V120.372H57.5549V120.791H55.1165V122.541H57.9549Z" fill="white"/>
<path d="M65.1642 118.26V122.97H59.391V118.26H59.8825V122.541H62.0367V118.26H62.5282V122.541H64.6775V118.26H65.1642Z" fill="white"/>
<path d="M70.417 122.541V122.97H67.0871V118.26H70.3158V118.694H67.5834V120.372H70.0219V120.791H67.5834V122.541H70.417Z" fill="white"/>
<path d="M75.7951 118.26V122.97H75.2988V120.801H72.3543V122.97H71.8579V118.26H72.3543V120.362H75.2988V118.26H75.7951Z" fill="white"/>
<path d="M78.2046 118.26H77.7131V122.97H78.2046V118.26Z" fill="white"/>
<path fill-rule="evenodd" clip-rule="evenodd" d="M46.9891 11.4145L47.0427 19.9387C47.0532 21.6073 47.3478 23.262 47.9137 24.8318C48.3839 26.1366 49.0745 27.6623 49.4476 28.2222L50.1266 29.2406L56.6545 22.7126L56.2901 21.5294C56.0895 20.8785 55.9367 17.8071 55.9508 14.704L55.9761 9.06155L61.6185 9.03622C64.7217 9.02215 67.7931 9.17495 68.4439 9.37558L69.6272 9.73999L76.0848 3.28237L75.5845 2.78206C75.3093 2.50686 73.6932 1.79185 71.9936 1.19362C69.9476 0.473469 67.7953 0.101123 65.6263 0.0920359L58.0882 0.060452C52.1405 0.0354083 47.1939 0.0947887 47.0966 0.192151C46.9989 0.289792 46.9508 5.33989 46.9891 11.4145ZM50.5166 37.3688C49.6581 38.5637 48.9712 39.873 48.476 41.2584L48.0547 42.4373C47.3842 44.3139 47.0379 46.2909 47.0306 48.2837L46.9609 67.2986L65.9567 67.2289C67.9619 67.2216 69.9511 66.871 71.838 66.1924L72.725 65.8733C74.2863 65.3115 75.7602 64.5313 77.1027 63.5561L78.1988 62.7599C78.9428 62.2194 79.6432 61.6214 80.2936 60.9713L97.189 44.0839L80.587 27.4819L63.985 44.0839L70.1629 50.2618L80.587 40.1444L84.5521 43.7769L72.9678 55.3612C71.9445 56.3845 70.6971 57.1558 69.3244 57.614C67.9422 58.0752 66.4942 58.3086 65.0371 58.3051L55.9761 58.2834L55.9544 49.2224C55.9509 47.7653 56.1843 46.3173 56.6455 44.9351C57.1037 43.5624 57.875 42.315 58.8983 41.2917L80.587 19.603L102.238 41.2644C103.264 42.2907 104.048 43.5329 104.533 44.9005C105.02 46.2748 105.265 47.7235 105.255 49.1816L105.198 58.2834L99.5555 58.3087C96.4523 58.3228 93.3807 58.1697 92.7301 57.9694L91.5469 57.6049L84.8127 64.3392L87.8418 65.7117C89.2305 66.3409 90.7002 66.7733 92.2084 66.9963C93.4589 67.1809 98.9272 67.3191 104.361 67.3025L114.239 67.2727L114.125 48.1564C114.114 46.299 113.813 44.4548 113.233 42.6905L113.199 42.5867C112.64 40.888 111.863 39.2688 110.888 37.7695C109.912 36.2682 108.781 34.8728 107.516 33.606L80.587 6.65905L52.8059 34.5673C52.1433 35.2329 51.5351 35.9506 50.9873 36.7134L50.5166 37.3688ZM91.5154 9.70847L93.0011 9.36518C93.8185 9.17636 96.8967 9.03088 99.8422 9.04214L105.197 9.06212L105.217 14.4172C105.229 17.3628 105.083 20.441 104.894 21.2584L104.551 22.7441L111.233 29.4266L111.929 27.9721C112.312 27.1721 112.967 25.484 113.384 24.2209C113.886 22.6993 114.145 21.1078 114.15 19.5054L114.213 0.0463867L95.5657 0.0930882C93.3927 0.0984956 91.2362 0.469781 89.1866 1.19136C87.4833 1.791 85.8648 2.50686 85.5896 2.78205L85.0893 3.28237L91.5154 9.70847Z" fill="white"/>
</svg>
