<svg width="231" height="53" viewBox="0 0 231 53" fill="none" xmlns="http://www.w3.org/2000/svg">
<path d="M81.6053 10.1579C84.0776 10.1579 86.414 10.5798 88.6146 11.4236C90.8151 12.2674 92.6897 13.4107 94.2382 14.8533L92.2007 17.3032C90.6521 15.8605 89.0221 14.8261 87.3105 14.2001C85.6261 13.5468 83.8602 13.2201 82.0129 13.2201C80.6273 13.2201 79.3504 13.4651 78.1822 13.9551C77.014 14.4178 75.9953 15.1392 75.1259 16.1191C74.2837 17.099 73.6181 18.3511 73.1291 19.8754C72.6672 21.3725 72.4363 23.1691 72.4363 25.265C72.4363 27.4154 72.6808 29.2664 73.1698 30.8179C73.6588 32.3422 74.338 33.608 75.2074 34.6151C76.0768 35.595 77.1227 36.33 78.3452 36.8199C79.5949 37.2827 80.9533 37.514 82.4204 37.514C83.6429 37.514 84.6889 37.4052 85.5582 37.1874C86.4547 36.9696 87.2019 36.7111 87.7995 36.4116C88.5059 36.085 89.09 35.7039 89.5518 35.2684V27.5107H84.2542V24.8567H95.4608V36.085C94.4556 36.9016 93.2874 37.6229 91.9562 38.249C90.8151 38.7934 89.4024 39.2834 87.718 39.7189C86.0608 40.1544 84.1591 40.3722 82.0129 40.3722C79.5678 40.3722 77.3672 40.0455 75.4112 39.3922C73.4551 38.7389 71.7843 37.7726 70.3987 36.4933C69.0132 35.214 67.9537 33.6352 67.2201 31.757C66.4866 29.8788 66.1199 27.7148 66.1199 25.265C66.1199 22.8152 66.4866 20.6512 67.2201 18.773C67.9537 16.8948 68.986 15.3161 70.3172 14.0367C71.6756 12.7574 73.3057 11.7911 75.2074 11.1378C77.1363 10.4845 79.2689 10.1579 81.6053 10.1579Z" fill="white"/>
<path d="M107.903 29.5522H120.536L114.423 14.445H114.015L107.903 29.5522ZM118.905 10.9745L130.52 39.5555H124.651L121.962 32.6144H106.476L103.787 39.5555H97.9186L109.533 10.9745H118.905Z" fill="white"/>
<path d="M152.131 25.0609L162.93 39.5555H156.206L146.833 26.8982H139.701V39.5555H133.792V10.9745H139.701V23.836H146.425L155.798 10.9745H162.318L152.131 25.0609Z" fill="white"/>
<path d="M184.525 25.0609L195.324 39.5555H188.6L179.227 26.8982H172.095V39.5555H166.187V10.9745H172.095V23.836H178.819L188.192 10.9745H194.712L184.525 25.0609Z" fill="white"/>
<path d="M213.251 37.514C214.582 37.514 215.778 37.3371 216.837 36.9833C217.924 36.6022 218.848 36.0306 219.608 35.2684C220.369 34.479 220.953 33.4855 221.361 32.2878C221.795 31.0629 222.013 29.6066 222.013 27.919V10.9745H227.922V27.919C227.922 32.1109 226.645 35.2412 224.091 37.3099C221.537 39.3514 217.924 40.3722 213.251 40.3722C208.551 40.3722 204.924 39.3514 202.37 37.3099C199.844 35.2412 198.581 32.1109 198.581 27.919V10.9745H204.49V27.919C204.49 29.6066 204.693 31.0629 205.101 32.2878C205.535 33.4855 206.133 34.479 206.894 35.2684C207.655 36.0306 208.565 36.6022 209.624 36.9833C210.711 37.3371 211.92 37.514 213.251 37.514Z" fill="white"/>
<path d="M157.047 46.7439H156.034V48.9848H155.53V46.7439H154.517L153.025 48.9848H152.426L154.093 46.4688L152.556 44.0979H153.11L154.507 46.2888H155.53V44.0979H156.034V46.2888H157.047L158.449 44.0979H159.008L157.461 46.4688L159.133 48.9848H158.534L157.047 46.7439Z" fill="white"/>
<path d="M160.306 44.0979H160.815V48.1495L163.934 44.0979H164.398V48.9848H163.894V44.9432L160.77 48.9848H160.306V44.0979Z" fill="white"/>
<path d="M170.137 44.0979V48.9848H169.628V44.5431H167.277L167.222 46.1787C167.197 46.854 167.147 47.3942 167.058 47.8093C166.973 48.2245 166.838 48.5296 166.663 48.7297C166.489 48.9348 166.249 49.0348 165.96 49.0348C165.835 49.0348 165.705 49.0198 165.571 48.9848L165.615 48.5246C165.695 48.5446 165.77 48.5546 165.845 48.5546C166.05 48.5546 166.214 48.4746 166.344 48.3145C166.474 48.1545 166.569 47.8994 166.633 47.5592C166.698 47.2191 166.743 46.7639 166.768 46.1987L166.838 44.1029H170.147L170.137 44.0979Z" fill="white"/>
<path d="M172.956 48.6997C172.562 48.4796 172.258 48.1845 172.038 47.8093C171.813 47.4342 171.704 47.009 171.704 46.5389C171.704 46.0687 171.813 45.6435 172.038 45.2684C172.263 44.8932 172.567 44.5931 172.956 44.378C173.35 44.1629 173.785 44.0529 174.269 44.0529C174.753 44.0529 175.182 44.1629 175.571 44.378C175.96 44.5931 176.265 44.8882 176.484 45.2684C176.709 45.6485 176.819 46.0737 176.819 46.5439C176.819 47.014 176.704 47.4392 176.484 47.8194C176.26 48.1995 175.956 48.4946 175.571 48.7097C175.182 48.9248 174.748 49.0348 174.269 49.0348C173.79 49.0348 173.35 48.9248 172.956 48.7097M175.312 48.3095C175.626 48.1345 175.866 47.8894 176.04 47.5843C176.215 47.2741 176.305 46.929 176.305 46.5489C176.305 46.1687 176.215 45.8236 176.04 45.5135C175.866 45.2033 175.616 44.9632 175.312 44.7882C174.997 44.6131 174.653 44.5281 174.269 44.5281C173.884 44.5281 173.535 44.6131 173.221 44.7882C172.906 44.9632 172.662 45.2083 172.482 45.5135C172.303 45.8236 172.218 46.1687 172.218 46.5489C172.218 46.929 172.308 47.2741 172.482 47.5843C172.662 47.8944 172.911 48.1345 173.221 48.3095C173.535 48.4846 173.884 48.5697 174.269 48.5697C174.653 48.5697 175.002 48.4846 175.312 48.3095Z" fill="white"/>
<path d="M178.406 44.0979H178.915V48.1495L182.034 44.0979H182.498V48.9848H181.989V44.9432L178.87 48.9848H178.406V44.0979ZM179.613 43.5027C179.409 43.3476 179.309 43.1225 179.304 42.8424H179.688C179.688 43.0275 179.763 43.1776 179.898 43.2826C180.033 43.3926 180.217 43.4427 180.437 43.4427C180.656 43.4427 180.841 43.3926 180.976 43.2826C181.116 43.1776 181.185 43.0325 181.19 42.8424H181.575C181.575 43.1275 181.465 43.3476 181.26 43.5027C181.056 43.6577 180.781 43.7428 180.442 43.7428C180.102 43.7428 179.818 43.6627 179.618 43.5027" fill="white"/>
<path d="M188.287 46.7439H187.169V48.9848H186.665V44.0979H187.169V46.2888H188.287L189.933 44.0979H190.492L188.676 46.4738L190.592 48.9848H190.003L188.287 46.7439Z" fill="white"/>
<path d="M192.558 48.6997C192.164 48.4796 191.86 48.1845 191.64 47.8093C191.416 47.4342 191.306 47.009 191.306 46.5389C191.306 46.0687 191.416 45.6435 191.64 45.2684C191.865 44.8932 192.169 44.5931 192.558 44.378C192.953 44.1629 193.387 44.0529 193.871 44.0529C194.355 44.0529 194.784 44.1629 195.173 44.378C195.563 44.5931 195.867 44.8882 196.087 45.2684C196.311 45.6485 196.421 46.0737 196.421 46.5439C196.421 47.014 196.306 47.4392 196.087 47.8194C195.862 48.1995 195.558 48.4946 195.173 48.7097C194.784 48.9248 194.35 49.0348 193.871 49.0348C193.392 49.0348 192.953 48.9248 192.558 48.7097M194.914 48.3095C195.228 48.1345 195.468 47.8894 195.643 47.5843C195.817 47.2741 195.907 46.929 195.907 46.5489C195.907 46.1687 195.817 45.8236 195.643 45.5135C195.468 45.2033 195.218 44.9632 194.914 44.7882C194.599 44.6131 194.255 44.5281 193.871 44.5281C193.487 44.5281 193.137 44.6131 192.823 44.7882C192.508 44.9632 192.264 45.2083 192.084 45.5135C191.905 45.8236 191.82 46.1687 191.82 46.5489C191.82 46.929 191.91 47.2741 192.084 47.5843C192.264 47.8944 192.513 48.1345 192.823 48.3095C193.137 48.4846 193.487 48.5697 193.871 48.5697C194.255 48.5697 194.604 48.4846 194.914 48.3095Z" fill="white"/>
<path d="M203.068 44.0979V48.9848H202.574V45.0783L200.658 48.3646H200.413L198.502 45.0983V48.9848H198.003V44.0979H198.432L200.548 47.7243L202.644 44.0979H203.068Z" fill="white"/>
<path d="M209.166 44.0979V48.9848H208.657V44.5481H205.568V48.9848H205.064V44.0979H209.166Z" fill="white"/>
<path d="M214.9 44.0979V48.9848H214.391V44.5431H212.041L211.986 46.1787C211.961 46.854 211.911 47.3942 211.821 47.8093C211.736 48.2245 211.602 48.5296 211.427 48.7297C211.252 48.9348 211.013 49.0348 210.723 49.0348C210.599 49.0348 210.469 49.0198 210.334 48.9848L210.379 48.5246C210.459 48.5446 210.534 48.5546 210.609 48.5546C210.813 48.5546 210.978 48.4746 211.108 48.3145C211.237 48.1545 211.332 47.8994 211.397 47.5592C211.462 47.2191 211.507 46.7639 211.532 46.1987L211.602 44.1029H214.91L214.9 44.0979Z" fill="white"/>
<path d="M220.345 48.5396V48.9848H216.891V44.0979H220.24V44.5481H217.41V46.2888H219.936V46.7239H217.41V48.5396H220.345Z" fill="white"/>
<path d="M223.449 46.7439H222.336V48.9848H221.832V44.0979H222.336V46.2888H223.449L225.101 44.0979H225.655L223.848 46.4738L225.764 48.9848H225.171L223.449 46.7439Z" fill="white"/>
<path d="M227.726 48.7047C227.336 48.4896 227.032 48.1945 226.812 47.8143C226.588 47.4342 226.478 47.009 226.478 46.5389C226.478 46.0687 226.588 45.6435 226.812 45.2634C227.032 44.8832 227.341 44.5881 227.726 44.373C228.115 44.1579 228.549 44.0479 229.033 44.0479C229.392 44.0479 229.732 44.1079 230.036 44.2279C230.345 44.348 230.6 44.5281 230.815 44.7582L230.485 45.0883C230.106 44.7031 229.622 44.5081 229.043 44.5081C228.659 44.5081 228.309 44.5981 227.99 44.7732C227.671 44.9482 227.426 45.1933 227.251 45.4984C227.072 45.8086 226.982 46.1487 226.982 46.5288C226.982 46.909 227.072 47.2541 227.251 47.5592C227.431 47.8694 227.681 48.1045 227.99 48.2845C228.309 48.4596 228.654 48.5496 229.043 48.5496C229.627 48.5496 230.111 48.3545 230.485 47.9644L230.815 48.2945C230.6 48.5296 230.341 48.7047 230.031 48.8247C229.722 48.9498 229.387 49.0098 229.023 49.0098C228.539 49.0098 228.105 48.9048 227.721 48.6847L227.726 48.7047Z" fill="white"/>
<path d="M149.676 43.8028H149.217V50.3353H149.676V43.8028Z" fill="white"/>
<path d="M71.2825 44.5431H69.5708V48.9798H69.0568V44.5431H67.3451V44.0929H71.2825V44.5431Z" fill="white"/>
<path d="M74.142 47.2892V48.9748H73.6329V47.2892L71.6817 44.0929H72.2307L73.9024 46.834L75.5742 44.0929H76.0932L74.142 47.2892ZM72.3105 47.0591H75.4395V47.4492H72.3105V47.0591Z" fill="white"/>
<path d="M80.4598 44.5431C80.8091 44.8432 80.9888 45.2534 80.9888 45.7686C80.9888 46.2838 80.8141 46.6989 80.4598 46.994C80.1104 47.2891 79.6214 47.4342 78.9976 47.4342H77.6901V48.9748H77.1711V44.0879H78.9976C79.6214 44.0879 80.1055 44.233 80.4598 44.5331M80.0905 46.6589C80.345 46.4488 80.4747 46.1487 80.4747 45.7585C80.4747 45.3684 80.345 45.0583 80.0905 44.8432C79.836 44.6331 79.4667 44.5231 78.9826 44.5231H77.6851V46.969H78.9826C79.4667 46.969 79.836 46.864 80.0905 46.6489" fill="white"/>
<path d="M83.1296 44.5431V46.5138H85.2355V46.909H83.1396V48.9798H82.6306V46.909H81.882V46.5138H82.6306V44.0929H85.7296V44.5431H83.1296Z" fill="white"/>
<path d="M90.4056 46.2287C90.71 46.4888 90.8597 46.869 90.8597 47.3742C90.8597 47.8794 90.7 48.2996 90.3756 48.5747C90.0513 48.8448 89.5872 48.9848 88.9783 48.9848H87.0421V44.0979H87.5511V45.8436H89.0831C89.657 45.8436 90.0962 45.9786 90.4006 46.2337M89.9864 48.2745C90.2209 48.0745 90.3357 47.7793 90.3357 47.3892C90.3357 46.6389 89.8766 46.2687 88.9534 46.2687H87.5411V48.5796H88.9534C89.4025 48.5796 89.7468 48.4796 89.9814 48.2795M91.6931 44.1029H92.2021V48.9898H91.6931V44.1029Z" fill="white"/>
<path d="M98.2804 44.0929V48.9798H97.7714V46.7289H94.7222V48.9798H94.2082V44.0929H94.7222V46.2738H97.7714V44.0929H98.2804Z" fill="white"/>
<path d="M104.144 47.2892V48.9798H103.635V47.2892L101.689 44.0929H102.238L103.905 46.839L105.581 44.0929H106.095L104.144 47.2892Z" fill="white"/>
<path d="M107.233 44.0929H107.742V48.1445L110.861 44.0929H111.325V48.9798H110.816V44.9382L107.697 48.9798H107.233V44.0929ZM108.441 43.4977C108.236 43.3426 108.136 43.1175 108.131 42.8374H108.516C108.516 43.0225 108.59 43.1726 108.725 43.2776C108.86 43.3876 109.04 43.4376 109.264 43.4376C109.489 43.4376 109.668 43.3876 109.803 43.2776C109.943 43.1726 110.013 43.0275 110.018 42.8374H110.402C110.402 43.1225 110.292 43.3426 110.088 43.4977C109.883 43.6527 109.609 43.7378 109.269 43.7378C108.93 43.7378 108.645 43.6577 108.446 43.4977" fill="white"/>
<path d="M117.109 46.7389H115.991V48.9798H115.492V44.0929H115.991V46.2888H117.109L118.761 44.0929H119.315L117.503 46.4688L119.42 48.9798H118.826L117.109 46.7389Z" fill="white"/>
<path d="M124.011 48.5346V48.9798H120.562V44.0929H123.906V44.5431H121.071V46.2837H123.597V46.7189H121.071V48.5346H124.011Z" fill="white"/>
<path d="M131.476 44.0929V48.9798H125.498V44.0929H126.007V48.5346H128.238V44.0929H128.747V48.5346H130.972V44.0929H131.476Z" fill="white"/>
<path d="M136.916 48.5346V48.9798H133.467V44.0929H136.811V44.5431H133.981V46.2837H136.507V46.7189H133.981V48.5346H136.916Z" fill="white"/>
<path d="M142.485 44.0929V48.9798H141.971V46.7289H138.922V48.9798H138.408V44.0929H138.922V46.2738H141.971V44.0929H142.485Z" fill="white"/>
<path d="M144.98 44.0929H144.471V48.9798H144.98V44.0929Z" fill="white"/>
<path fill-rule="evenodd" clip-rule="evenodd" d="M0.670186 8.88652L0.711645 15.488C0.71976 16.7803 0.94743 18.0617 1.38489 19.2774C1.74833 20.2879 2.28208 21.4695 2.57048 21.9032L3.09531 22.6918L8.1411 17.6363L7.85943 16.7199C7.70436 16.2159 7.58625 13.8373 7.59713 11.434L7.61671 7.06427L11.978 7.04465C14.3766 7.03376 16.7506 7.15209 17.2537 7.30747L18.1683 7.58968L23.1597 2.58861L22.773 2.20115C22.5603 1.98802 21.3112 1.43429 19.9975 0.970987C18.416 0.413271 16.7524 0.12491 15.0758 0.117872L9.24926 0.0934123C4.65196 0.0740173 0.828522 0.120004 0.753266 0.195406C0.677795 0.271023 0.640605 4.18205 0.670186 8.88652ZM3.39677 28.9867C2.73319 29.9121 2.20227 30.926 1.81949 31.999L1.49383 32.9119C0.975627 34.3653 0.707963 35.8964 0.702296 37.4397L0.648438 52.1656L15.3312 52.1117C16.8811 52.106 18.4187 51.8345 19.8772 51.309L20.5627 51.0618C21.7696 50.6267 22.9088 50.0226 23.9465 49.2673L24.7937 48.6507C25.3688 48.2321 25.9102 47.7689 26.4129 47.2655L39.4722 34.1871L26.6397 21.3298L13.8072 34.1871L18.5824 38.9716L26.6397 31.1362L29.7045 33.9494L20.7504 42.9208C19.9594 43.7133 18.9953 44.3106 17.9343 44.6654C16.8659 45.0226 15.7467 45.2034 14.6204 45.2007L7.61671 45.1839L7.59991 38.1666C7.59721 37.0382 7.77764 35.9168 8.13414 34.8463C8.4883 33.7832 9.08443 32.8173 9.8754 32.0248L26.6397 15.228L43.3748 32.0036C44.1677 32.7984 44.7737 33.7604 45.1485 34.8195C45.5253 35.8839 45.7143 37.0058 45.7072 38.1351L45.6627 45.1839L41.3014 45.2035C38.9028 45.2144 36.5286 45.0958 36.0257 44.9407L35.1111 44.6584L29.9059 49.8737L32.2473 50.9367C33.3207 51.4239 34.4567 51.7588 35.6225 51.9316C36.589 52.0745 40.8157 52.1815 45.0154 52.1687L52.651 52.1456L52.5632 37.3411C52.5546 35.9026 52.3218 34.4744 51.8732 33.108L51.8468 33.0277C51.4147 31.7121 50.8144 30.4581 50.061 29.297C49.3063 28.1343 48.4326 27.0536 47.4541 26.0726L26.6397 5.20366L5.16628 26.8171C4.65414 27.3326 4.18407 27.8884 3.7606 28.4791L3.39677 28.9867ZM35.0868 7.56527L36.2352 7.29941C36.867 7.15318 39.2462 7.04052 41.523 7.04923L45.6623 7.06471L45.6777 11.212C45.6864 13.4932 45.574 15.877 45.428 16.51L45.1627 17.6607L50.3279 22.8359L50.8658 21.7094C51.1618 21.0899 51.6675 19.7826 51.99 18.8043C52.3785 17.626 52.5784 16.3934 52.5824 15.1525L52.631 0.0825195L38.2175 0.118687C36.5379 0.122875 34.871 0.410415 33.2867 0.969242C31.9702 1.43363 30.7191 1.98802 30.5064 2.20114L30.1197 2.58861L35.0868 7.56527Z" fill="white"/>
</svg>
